{"title":"Elysium.2013.NEW.SOURCE.CROPPED.XViD - JUSTiCE","uid":8917058,"size":1506311293,"categoryP":"video","categoryS":"movies","magnet":"?xt=urn:btih:0ddbc2ef11d229ac696b0071c54e2c8279b0a910&amp;dn=Elysium.2013.NEW.SOURCE.CROPPED.XViD+-+JUSTiCE&amp;tr=udp%3A%2F%2Ftracker.openbittorrent.com%3A80&amp;tr=udp%3A%2F%2Fopen.demonii.com%3A1337&amp;tr=udp%3A%2F%2Ftracker.coppersurfer.tk%3A6969&amp;tr=udp%3A%2F%2Fexodus.desync.com%3A6969","seeders":1,"leechers":0,"uploader":"Acesn8s","files":-1,"time":1379167345,"description":"Elysium.2013.NEW.SOURCE.CROPPED.XViD JUSTiCE\n\nSOURCE : VIDEO - SMY THXS   AUDIO - SMY THXS\n==================================================================================\n\nVideo\nID                                       : 0\nFormat                                   : MPEG-4 Visual\nFormat profile                           : Advanced Simple@L5\nFormat settings, BVOP                    : 2\nFormat settings, QPel                    : No\nFormat settings, GMC                     : No warppoints\nFormat settings, Matrix                  : Default (MPEG)\nMuxing mode                              : Packed bitstream\nCodec ID                                 : XVID\nCodec ID/Hint                            : XviD\nDuration                                 : 1h 40mn\nBit rate                                 : 1 824 Kbps\nWidth                                    : 720 pixels\nHeight                                   : 266 pixels\nDisplay aspect ratio                     : 2.707\nFrame rate                               : 29.970 fps\nColor space                              : YUV\nChroma subsampling                       : 4:2:0\nBit depth                                : 8 bits\nScan type                                : Progressive\nCompression mode                         : Lossy\nBits/(Pixel*Frame)                       : 0.318\nStream size                              : 1.28 GiB (93%)\nWriting library                          : XviD 64\n\n==================================================================================\n\nAudio\nID                                       : 1\nFormat                                   : MPEG Audio\nFormat version                           : Version 1\nFormat profile                           : Layer 3\nMode                                     : Joint stereo\nMode extension                           : MS Stereo\nCodec ID                                 : 55\nCodec ID/Hint                            : MP3\nDuration                                 : 1h 40mn\nBit rate mode                            : Constant\nBit rate                                 : 128 Kbps\nChannel(s)                               : 2 channels\nSampling rate                            : 48.0 KHz\nCompression mode                         : Lossy\nStream size                              : 92.3 MiB (7%)\nAlignment                                : Split accross interleaves\nInterleave, duration                     : 33 ms (1.00 video frame)\nInterleave, preload duration             : 500 ms\n\n==================================================================================\n\nCast: Matt Damon, Jodie Foster, Sharlto Copley\n\nPlot: Set in the year 2154, where the very wealthy live on a man-made space \nstation while the rest of the population resides on a ruined Earth, a man takes \non a mission that could bring equality to the polarized worlds.\n\nIMDb:\n &lt;a href=&quot;\nhttp://www.imdb.com/title/tt1535108/&quot; rel=&quot;nofollow&quot; target=&quot;_NEW&quot;&gt;\nhttp://www.imdb.com/title/tt1535108/&lt;/a&gt;\n\n==================================================================================\n\nScreens:\n &lt;a href=&quot;\nhttp://s17.postimg.org/c284aca3j/5vyz1g0.png&quot; rel=&quot;nofollow&quot; target=&quot;_NEW&quot;&gt;\nhttp://s17.postimg.org/c284aca3j/5vyz1g0.png&lt;/a&gt;\n &lt;a href=&quot;\nhttp://s17.postimg.org/fpnvgeian/CRowd_X8.png&quot; rel=&quot;nofollow&quot; target=&quot;_NEW&quot;&gt;\nhttp://s17.postimg.org/fpnvgeian/CRowd_X8.png&lt;/a&gt;\n &lt;a href=&quot;\nhttp://s17.postimg.org/l2cpuj673/glf_EQii.png&quot; rel=&quot;nofollow&quot; target=&quot;_NEW&quot;&gt;\nhttp://s17.postimg.org/l2cpuj673/glf_EQii.png&lt;/a&gt;\n &lt;a href=&quot;\nhttp://s17.postimg.org/e0es8c2lb/Ht_Ufbxs.png&quot; rel=&quot;nofollow&quot; target=&quot;_NEW&quot;&gt;\nhttp://s17.postimg.org/e0es8c2lb/Ht_Ufbxs.png&lt;/a&gt;\n &lt;a href=&quot;\nhttp://s17.postimg.org/4nishyo7z/JAi8269.png&quot; rel=&quot;nofollow&quot; target=&quot;_NEW&quot;&gt;\nhttp://s17.postimg.org/4nishyo7z/JAi8269.png&lt;/a&gt;\n &lt;a href=&quot;\nhttp://s17.postimg.org/ygpsqkcv3/TCEo_Eky.png&quot; rel=&quot;nofollow&quot; target=&quot;_NEW&quot;&gt;\nhttp://s17.postimg.org/ygpsqkcv3/TCEo_Eky.png&lt;/a&gt;","torrent":{"xt":"urn:btih:0ddbc2ef11d229ac696b0071c54e2c8279b0a910","amp;dn":"Elysium.2013.NEW.SOURCE.CROPPED.XViD+-+JUSTiCE","amp;tr":["udp%3A%2F%2Ftracker.openbittorrent.com%3A80","udp%3A%2F%2Fopen.demonii.com%3A1337","udp%3A%2F%2Ftracker.coppersurfer.tk%3A6969","udp%3A%2F%2Fexodus.desync.com%3A6969"],"infoHash":"0ddbc2ef11d229ac696b0071c54e2c8279b0a910","infoHashBuffer":{"type":"Buffer","data":[13,219,194,239,17,210,41,172,105,107,0,113,197,78,44,130,121,176,169,16]},"announce":[],"urlList":[]}}